<?xml version="1.0" encoding="UTF-8" standalone="no"?>
<!DOCTYPE svg PUBLIC "-//W3C//DTD SVG 1.1//EN" "http://www.w3.org/Graphics/SVG/1.1/DTD/svg11.dtd">
<svg width="100%" height="100%" viewBox="0 0 2732 2048" version="1.1" xmlns="http://www.w3.org/2000/svg" xmlns:xlink="http://www.w3.org/1999/xlink" xml:space="preserve" xmlns:serif="http://www.serif.com/" style="fill-rule:evenodd;clip-rule:evenodd;stroke-linejoin:round;stroke-miterlimit:1.41421;">
    <g>
        <path d="M1285.94,1378.81L1653.35,1166.69L1653.35,742.437L1285.94,954.562L1285.94,1378.81Z" style="fill:rgb(133,35,32);"/>
        <path d="M918.528,1166.69L918.528,742.437L1285.94,954.563L1285.94,1378.81L918.528,1166.69Z" style="fill:rgb(84,23,21);"/>
        <path d="M1285.94,530.312L1653.35,742.437L1285.94,954.563L918.528,742.437L1285.94,530.312Z" style="fill:rgb(183,48,44);"/>
    </g>
    <g>
        <path d="M1285.94,742.437L1102.23,636.375L1102.23,424.25L1285.94,530.313L1285.94,742.437Z" style="fill:rgb(191,193,193);"/>
        <path d="M1469.64,636.375L1469.64,424.25L1285.94,530.313L1285.94,742.437L1469.64,636.375Z" style="fill:rgb(226,227,227);"/>
        <path d="M1285.94,318.188L1102.23,424.25L1285.94,530.313L1469.64,424.25L1285.94,318.188Z" style="fill:white;"/>
    </g>
    <g transform="matrix(1,0,0,1,-367.411,636.375)">
        <path d="M1285.94,742.437L1102.23,636.375L1102.23,424.25L1285.94,530.313L1285.94,742.437Z" style="fill:rgb(191,193,193);"/>
        <path d="M1469.64,636.375L1469.64,424.25L1285.94,530.313L1285.94,742.437L1469.64,636.375Z" style="fill:rgb(226,227,227);"/>
        <path d="M1285.94,318.188L1102.23,424.25L1285.94,530.313L1469.64,424.25L1285.94,318.188Z" style="fill:white;"/>
    </g>
    <g transform="matrix(1,0,0,1,367.411,7.10543e-15)">
        <path d="M1285.94,742.437L1102.23,636.375L1102.23,424.25L1285.94,530.313L1285.94,742.437Z" style="fill:rgb(191,193,193);"/>
        <path d="M1469.64,636.375L1469.64,424.25L1285.94,530.313L1285.94,742.437L1469.64,636.375Z" style="fill:rgb(226,227,227);"/>
        <path d="M1285.94,318.188L1102.23,424.25L1285.94,530.313L1469.64,424.25L1285.94,318.188Z" style="fill:white;"/>
    </g>
    <g transform="matrix(1,0,0,1,-183.706,954.562)">
        <path d="M1285.94,742.437L1102.23,636.375L1102.23,424.25L1285.94,530.313L1285.94,742.437Z" style="fill:rgb(191,193,193);"/>
        <path d="M1469.64,636.375L1469.64,424.25L1285.94,530.313L1285.94,742.437L1469.64,636.375Z" style="fill:rgb(226,227,227);"/>
        <path d="M1285.94,318.188L1102.23,424.25L1285.94,530.313L1469.64,424.25L1285.94,318.188Z" style="fill:white;"/>
    </g>
    <g transform="matrix(1,0,0,1,183.706,954.563)">
        <path d="M1285.94,742.437L1102.23,636.375L1102.23,424.25L1285.94,530.313L1285.94,742.437Z" style="fill:rgb(191,193,193);"/>
        <path d="M1469.64,636.375L1469.64,424.25L1285.94,530.313L1285.94,742.437L1469.64,636.375Z" style="fill:rgb(226,227,227);"/>
        <path d="M1285.94,318.188L1102.23,424.25L1285.94,530.313L1469.64,424.25L1285.94,318.188Z" style="fill:white;"/>
    </g>
    <g transform="matrix(1,0,0,1,551.117,318.187)">
        <path d="M1285.94,742.437L1102.23,636.375L1102.23,424.25L1285.94,530.313L1285.94,742.437Z" style="fill:rgb(191,193,193);"/>
        <path d="M1469.64,636.375L1469.64,424.25L1285.94,530.313L1285.94,742.437L1469.64,636.375Z" style="fill:rgb(226,227,227);"/>
        <path d="M1285.94,318.188L1102.23,424.25L1285.94,530.313L1469.64,424.25L1285.94,318.188Z" style="fill:white;"/>
    </g>
    <g transform="matrix(1,0,0,1,367.411,636.375)">
        <path d="M1285.94,742.437L1102.23,636.375L1102.23,424.25L1285.94,530.313L1285.94,742.437Z" style="fill:rgb(191,193,193);"/>
        <path d="M1469.64,636.375L1469.64,424.25L1285.94,530.313L1285.94,742.437L1469.64,636.375Z" style="fill:rgb(226,227,227);"/>
        <path d="M1285.94,318.188L1102.23,424.25L1285.94,530.313L1469.64,424.25L1285.94,318.188Z" style="fill:white;"/>
    </g>
    <g transform="matrix(1,0,0,1,-551.117,318.188)">
        <path d="M1285.94,742.437L1102.23,636.375L1102.23,424.25L1285.94,530.313L1285.94,742.437Z" style="fill:rgb(191,193,193);"/>
        <path d="M1469.64,636.375L1469.64,424.25L1285.94,530.313L1285.94,742.437L1469.64,636.375Z" style="fill:rgb(226,227,227);"/>
        <path d="M1285.94,318.188L1102.23,424.25L1285.94,530.313L1469.64,424.25L1285.94,318.188Z" style="fill:white;"/>
    </g>
    <g transform="matrix(1,0,0,1,-367.411,3.41061e-12)">
        <path d="M1285.94,742.437L1102.23,636.375L1102.23,424.25L1285.94,530.313L1285.94,742.437Z" style="fill:rgb(191,193,193);"/>
        <path d="M1469.64,636.375L1469.64,424.25L1285.94,530.313L1285.94,742.437L1469.64,636.375Z" style="fill:rgb(226,227,227);"/>
        <path d="M1285.94,318.188L1102.23,424.25L1285.94,530.313L1469.64,424.25L1285.94,318.188Z" style="fill:white;"/>
    </g>
</svg>
