<?xml version="1.0" encoding="UTF-8" standalone="no"?>
<!DOCTYPE svg PUBLIC "-//W3C//DTD SVG 1.1//EN" "http://www.w3.org/Graphics/SVG/1.1/DTD/svg11.dtd">
<svg width="100%" height="100%" viewBox="0 0 2048 2048" version="1.1" xmlns="http://www.w3.org/2000/svg" xmlns:xlink="http://www.w3.org/1999/xlink" xml:space="preserve" xmlns:serif="http://www.serif.com/" style="fill-rule:evenodd;clip-rule:evenodd;stroke-linejoin:round;stroke-miterlimit:1.41421;">
    <g transform="matrix(1.48498,0,0,1.48498,-201.102,-854.327)">
        <path d="M1076.66,575.312C1083.83,748.755 756.514,869.498 564.829,976.9C385.585,1077.33 344.841,1314.19 505.395,1464.98C559.058,1515.38 605.029,1516.61 707.746,1544.17C661.001,1697.21 696.889,1833.32 821.03,1954.46C798.107,1819.93 811.967,1762.11 850.44,1677.68C897.195,1575.08 1024.51,1531.18 1153.95,1498.78C1239.67,1477.32 1244.56,1387.63 1245.04,1355.92C1246.75,1242.58 1071.99,1179.12 933.474,1268.23C731.258,1398.33 671.473,1323.04 675.118,1296.42C675.498,1284.99 781.402,1223.01 886.986,1192.44C933.518,1178.96 972.999,1165.06 1006.61,1150.68C1159.66,1085.21 1191.07,1009.94 1212.54,920.923C1212.54,920.923 1181.93,962.442 1187.73,948.299C1227.61,851.102 1176.7,681.65 1076.66,575.312Z" style="fill:url(#_Linear1);"/>
        <clipPath id="_clip2">
            <path d="M1076.66,575.312C1083.83,748.755 756.514,869.498 564.829,976.9C385.585,1077.33 344.841,1314.19 505.395,1464.98C559.058,1515.38 605.029,1516.61 707.746,1544.17C661.001,1697.21 696.889,1833.32 821.03,1954.46C798.107,1819.93 811.967,1762.11 850.44,1677.68C897.195,1575.08 1024.51,1531.18 1153.95,1498.78C1239.67,1477.32 1244.56,1387.63 1245.04,1355.92C1246.75,1242.58 1071.99,1179.12 933.474,1268.23C731.258,1398.33 671.473,1323.04 675.118,1296.42C675.498,1284.99 781.402,1223.01 886.986,1192.44C933.518,1178.96 972.999,1165.06 1006.61,1150.68C1159.66,1085.21 1191.07,1009.94 1212.54,920.923C1212.54,920.923 1181.93,962.442 1187.73,948.299C1227.61,851.102 1176.7,681.65 1076.66,575.312Z"/>
        </clipPath>
        <g clip-path="url(#_clip2)">
            <path d="M1212.44,921.287C1154.19,1010.47 1038.83,1012.56 947.455,989.702L971.092,915.923C971.092,915.923 761.069,958.096 723.261,896.949C1031.85,445.511 1287.6,160.94 1212.44,921.287Z" style="fill:white;"/>
        </g>
    </g>
    <defs>
        <linearGradient id="_Linear1" x1="0" y1="0" x2="1" y2="0" gradientUnits="userSpaceOnUse" gradientTransform="matrix(502.951,1012.87,-1012.87,502.951,471.522,828.997)"><stop offset="0" style="stop-color:rgb(209,106,39);stop-opacity:1"/><stop offset="0.26" style="stop-color:rgb(196,89,36);stop-opacity:1"/><stop offset="0.56" style="stop-color:rgb(161,46,30);stop-opacity:1"/><stop offset="1" style="stop-color:rgb(209,106,39);stop-opacity:1"/></linearGradient>
    </defs>
</svg>
