<?xml version="1.0" encoding="UTF-8" standalone="no"?>
<!DOCTYPE svg PUBLIC "-//W3C//DTD SVG 1.1//EN" "http://www.w3.org/Graphics/SVG/1.1/DTD/svg11.dtd">
<svg width="100%" height="100%" viewBox="0 0 2732 2048" version="1.1" xmlns="http://www.w3.org/2000/svg" xmlns:xlink="http://www.w3.org/1999/xlink" xml:space="preserve" xmlns:serif="http://www.serif.com/" style="fill-rule:evenodd;clip-rule:evenodd;stroke-linecap:round;stroke-linejoin:round;stroke-miterlimit:1.5;">
    <g transform="matrix(3.6096,0,0,3.6096,-951.913,-3263.95)">
        <g transform="matrix(1,0,0,1,-35.2761,33.5445)">
            <path d="M467.654,1290L467.654,1230L623.538,1320L623.12,1379.76L467.654,1290Z" style="fill:rgb(193,201,164);stroke:rgb(202,220,193);stroke-width:0.55px;"/>
            <path d="M935.307,1140L623.538,1320L623.12,1379.76L935.307,1200L935.307,1140Z" style="fill:rgb(193,201,164);stroke:rgb(202,220,193);stroke-width:0.55px;"/>
            <path d="M623.166,1373.12L935.307,1193.33L623.166,1373.12Z" style="fill:none;stroke:rgb(202,220,193);stroke-width:0.47px;"/>
            <path d="M623.12,1366.42L935.307,1186.67L623.12,1366.42Z" style="fill:none;stroke:rgb(202,220,193);stroke-width:0.47px;"/>
            <path d="M623.12,1359.76L935.307,1180L623.12,1359.76Z" style="fill:none;stroke:rgb(202,220,193);stroke-width:0.47px;"/>
            <path d="M623.166,1353.12L935.307,1173.33L623.166,1353.12Z" style="fill:none;stroke:rgb(202,220,193);stroke-width:0.47px;"/>
            <path d="M623.166,1346.45L935.307,1166.67L623.166,1346.45Z" style="fill:none;stroke:rgb(202,220,193);stroke-width:0.47px;"/>
            <path d="M623.12,1339.76L935.307,1160L623.12,1339.76Z" style="fill:none;stroke:rgb(202,220,193);stroke-width:0.47px;"/>
            <path d="M935.307,1146.67L623.12,1326.42L935.307,1146.67Z" style="fill:none;stroke:rgb(202,220,193);stroke-width:0.47px;"/>
            <path d="M935.307,1153.33L623.166,1333.55L935.307,1153.33Z" style="fill:none;stroke:rgb(202,220,193);stroke-width:0.47px;"/>
            <path d="M779.423,1050L467.654,1230L623.538,1320L935.307,1140L779.423,1050Z" style="fill:rgb(243,247,222);stroke:rgb(202,220,193);stroke-width:0.47px;"/>
            <path d="M502.295,1230L519.615,1240L577.35,1206.67L560.03,1196.67L502.295,1230Z" style="fill:rgb(8,77,6);"/>
            <g transform="matrix(1,0,0,1,103.923,60)">
                <path d="M502.295,1230L519.615,1240L577.35,1206.67L560.03,1196.67L502.295,1230Z" style="fill:rgb(8,77,6);"/>
            </g>
            <g transform="matrix(1,0,0,1,323.316,-66.6667)">
                <path d="M502.295,1230L519.615,1240L577.35,1206.67L560.03,1196.67L502.295,1230Z" style="fill:rgb(8,77,6);"/>
            </g>
            <g transform="matrix(1,0,0,1,219.393,-126.667)">
                <path d="M502.295,1230L519.615,1240L577.35,1206.67L560.03,1196.67L502.295,1230Z" style="fill:rgb(8,77,6);"/>
            </g>
            <path d="M623.538,1326.42L467.654,1236.67L623.538,1326.42Z" style="fill:none;stroke:rgb(202,220,193);stroke-width:0.47px;"/>
            <path d="M623.12,1333.09L467.654,1243.33L623.12,1333.09Z" style="fill:none;stroke:rgb(202,220,193);stroke-width:0.47px;"/>
            <path d="M623.538,1340L468.289,1250.37L623.538,1340Z" style="fill:none;stroke:rgb(202,220,193);stroke-width:0.47px;"/>
            <path d="M623.12,1346.42L467.654,1256.67L623.12,1346.42Z" style="fill:none;stroke:rgb(202,220,193);stroke-width:0.47px;"/>
            <path d="M623.12,1353.58L467.654,1263.33L623.12,1353.58Z" style="fill:none;stroke:rgb(202,220,193);stroke-width:0.47px;"/>
            <path d="M623.12,1360.24L467.654,1270L623.12,1360.24Z" style="fill:none;stroke:rgb(202,220,193);stroke-width:0.47px;"/>
            <path d="M623.12,1366.91L467.654,1276.67L623.12,1366.91Z" style="fill:none;stroke:rgb(202,220,193);stroke-width:0.47px;"/>
            <path d="M467.654,1283.33L623.12,1373.09L467.654,1283.33Z" style="fill:none;stroke:rgb(202,220,193);stroke-width:0.47px;"/>
            <g transform="matrix(1.07077,0,0,1.13732,-98.2083,-183.864)">
                <ellipse cx="744.677" cy="1196.61" rx="74.951" ry="50.06" style="fill:rgb(193,201,164);stroke:rgb(202,220,193);stroke-width:0.5px;"/>
            </g>
            <g transform="matrix(1,0,0,1,11.0082,-6.35557)">
                <path d="M831.384,1266.67L727.461,1326.67L727.461,1260L831.384,1200L831.384,1266.67Z" style="fill:rgb(255,229,178);"/>
            </g>
            <g transform="matrix(1,0,0,1,11.0082,-6.35557)">
                <path d="M935.307,1192.71L623.12,1373.09" style="fill:none;"/>
            </g>
            <g transform="matrix(1,0,0,1,11.0082,-6.35557)">
                <path d="M611.991,1133.33L560.03,1163.33L727.461,1260L831.384,1200L663.953,1103.33L611.991,1133.33Z" style="fill:rgb(255,234,193);"/>
            </g>
            <g transform="matrix(1,0,0,1,11.0082,-6.35557)">
                <path d="M560.03,1170L560.03,1176.12L565.277,1173.03L560.03,1170Z" style="fill:rgb(236,215,173);"/>
            </g>
            <g transform="matrix(1,0,0,1,11.0082,-6.35557)">
                <path d="M727.461,1326.67L721.688,1323.33L721.688,1256.67L727.461,1260L727.461,1326.67Z" style="fill:rgb(236,215,173);"/>
            </g>
            <g transform="matrix(1,0,0,1,11.0082,-6.35557)">
                <path d="M566.073,1159.84L572.265,1156.27L739.008,1253.33L733.235,1256.67L566.073,1159.84Z" style="fill:rgb(255,78,78);"/>
            </g>
            <g transform="matrix(1,0,0,1,11.0082,-6.35557)">
                <path d="M733.235,1323.33L733.235,1256.67L739.008,1253.33L739.008,1320L733.235,1323.33Z" style="fill:rgb(255,78,78);"/>
            </g>
            <g transform="matrix(1,0,0,1,11.0082,-6.35557)">
                <path d="M825.611,1270L819.837,1273.33L819.837,1206.67L825.611,1203.33L825.611,1270Z" style="fill:rgb(255,78,78);"/>
            </g>
            <g transform="matrix(1,0,0,1,11.0082,-6.35557)">
                <path d="M652.541,1109.92L658.179,1106.67L825.611,1203.33L819.837,1206.67L652.541,1109.92Z" style="fill:rgb(255,78,78);"/>
            </g>
            <g transform="matrix(1,0,0,1,11.0082,-6.35557)">
                <path d="M560.03,1170L560.03,1163.33L727.461,1260L727.461,1266.67L560.03,1170Z" style="fill:rgb(236,215,173);"/>
            </g>
        </g>
        <g transform="matrix(1,0,0,1,12.9904,-81.8778)">
            <g transform="matrix(1,0,0,1,-11.0082,6.35557)">
                <path d="M467.654,1290L467.654,1230L623.538,1320L623.12,1379.76L467.654,1290Z" style="fill:rgb(193,201,164);stroke:rgb(202,220,193);stroke-width:0.55px;"/>
                <path d="M935.307,1140L623.538,1320L623.12,1379.76L935.307,1200L935.307,1140Z" style="fill:rgb(193,201,164);stroke:rgb(202,220,193);stroke-width:0.55px;"/>
                <path d="M623.166,1373.12L935.307,1193.33L623.166,1373.12Z" style="fill:none;stroke:rgb(202,220,193);stroke-width:0.47px;"/>
                <path d="M623.12,1366.42L935.307,1186.67L623.12,1366.42Z" style="fill:none;stroke:rgb(202,220,193);stroke-width:0.47px;"/>
                <path d="M623.12,1359.76L935.307,1180L623.12,1359.76Z" style="fill:none;stroke:rgb(202,220,193);stroke-width:0.47px;"/>
                <path d="M623.166,1353.12L935.307,1173.33L623.166,1353.12Z" style="fill:none;stroke:rgb(202,220,193);stroke-width:0.47px;"/>
                <path d="M623.166,1346.45L935.307,1166.67L623.166,1346.45Z" style="fill:none;stroke:rgb(202,220,193);stroke-width:0.47px;"/>
                <path d="M623.12,1339.76L935.307,1160L623.12,1339.76Z" style="fill:none;stroke:rgb(202,220,193);stroke-width:0.47px;"/>
                <path d="M935.307,1146.67L623.12,1326.42L935.307,1146.67Z" style="fill:none;stroke:rgb(202,220,193);stroke-width:0.47px;"/>
                <path d="M935.307,1153.33L623.166,1333.55L935.307,1153.33Z" style="fill:none;stroke:rgb(202,220,193);stroke-width:0.47px;"/>
                <path d="M779.423,1050L467.654,1230L623.538,1320L935.307,1140L779.423,1050Z" style="fill:rgb(243,247,222);stroke:rgb(202,220,193);stroke-width:0.47px;"/>
                <path d="M502.295,1230L519.615,1240L577.35,1206.67L560.03,1196.67L502.295,1230Z" style="fill:rgb(8,77,6);"/>
                <g transform="matrix(1,0,0,1,103.923,60)">
                    <path d="M502.295,1230L519.615,1240L577.35,1206.67L560.03,1196.67L502.295,1230Z" style="fill:rgb(8,77,6);"/>
                </g>
                <g transform="matrix(1,0,0,1,323.316,-66.6667)">
                    <path d="M502.295,1230L519.615,1240L577.35,1206.67L560.03,1196.67L502.295,1230Z" style="fill:rgb(8,77,6);"/>
                </g>
                <g transform="matrix(1,0,0,1,219.393,-126.667)">
                    <path d="M502.295,1230L519.615,1240L577.35,1206.67L560.03,1196.67L502.295,1230Z" style="fill:rgb(8,77,6);"/>
                </g>
                <path d="M623.538,1326.42L467.654,1236.67L623.538,1326.42Z" style="fill:none;stroke:rgb(202,220,193);stroke-width:0.47px;"/>
                <path d="M623.12,1333.09L467.654,1243.33L623.12,1333.09Z" style="fill:none;stroke:rgb(202,220,193);stroke-width:0.47px;"/>
                <path d="M623.538,1340L468.289,1250.37L623.538,1340Z" style="fill:none;stroke:rgb(202,220,193);stroke-width:0.47px;"/>
                <path d="M623.12,1346.42L467.654,1256.67L623.12,1346.42Z" style="fill:none;stroke:rgb(202,220,193);stroke-width:0.47px;"/>
                <path d="M623.12,1353.58L467.654,1263.33L623.12,1353.58Z" style="fill:none;stroke:rgb(202,220,193);stroke-width:0.47px;"/>
                <path d="M623.12,1360.24L467.654,1270L623.12,1360.24Z" style="fill:none;stroke:rgb(202,220,193);stroke-width:0.47px;"/>
                <path d="M623.12,1366.91L467.654,1276.67L623.12,1366.91Z" style="fill:none;stroke:rgb(202,220,193);stroke-width:0.47px;"/>
                <path d="M467.654,1283.33L623.12,1373.09L467.654,1283.33Z" style="fill:none;stroke:rgb(202,220,193);stroke-width:0.47px;"/>
            </g>
            <g transform="matrix(1.07077,0,0,1.13732,-109.216,-177.508)">
                <ellipse cx="744.677" cy="1196.61" rx="74.951" ry="50.06" style="fill:rgb(193,201,164);stroke:rgb(202,220,193);stroke-width:0.5px;"/>
            </g>
            <path d="M831.384,1266.67L727.461,1326.67L727.461,1260L831.384,1200L831.384,1266.67Z" style="fill:rgb(255,229,178);"/>
            <path d="M935.307,1192.71L623.12,1373.09" style="fill:none;"/>
            <path d="M611.991,1133.33L560.03,1163.33L727.461,1260L831.384,1200L663.953,1103.33L611.991,1133.33Z" style="fill:rgb(255,234,193);"/>
            <path d="M560.03,1170L560.03,1176.12L565.277,1173.03L560.03,1170Z" style="fill:rgb(236,215,173);"/>
            <path d="M727.461,1326.67L721.688,1323.33L721.688,1256.67L727.461,1260L727.461,1326.67Z" style="fill:rgb(236,215,173);"/>
            <path d="M566.073,1159.84L572.265,1156.27L739.008,1253.33L733.235,1256.67L566.073,1159.84Z" style="fill:rgb(255,78,78);"/>
            <path d="M733.235,1323.33L733.235,1256.67L739.008,1253.33L739.008,1320L733.235,1323.33Z" style="fill:rgb(255,78,78);"/>
            <path d="M825.611,1270L819.837,1273.33L819.837,1206.67L825.611,1203.33L825.611,1270Z" style="fill:rgb(255,78,78);"/>
            <path d="M652.541,1109.92L658.179,1106.67L825.611,1203.33L819.837,1206.67L652.541,1109.92Z" style="fill:rgb(255,78,78);"/>
            <path d="M560.03,1170L560.03,1163.33L727.461,1260L727.461,1266.67L560.03,1170Z" style="fill:rgb(236,215,173);"/>
        </g>
        <g transform="matrix(1,0,0,1,-105.636,-95.8333)">
            <g transform="matrix(1,0,0,1,-11.0082,6.35557)">
                <path d="M467.654,1290L467.654,1230L623.538,1320L623.12,1379.76L467.654,1290Z" style="fill:rgb(193,201,164);stroke:rgb(202,220,193);stroke-width:0.55px;"/>
                <path d="M935.307,1140L623.538,1320L623.12,1379.76L935.307,1200L935.307,1140Z" style="fill:rgb(193,201,164);stroke:rgb(202,220,193);stroke-width:0.55px;"/>
                <path d="M623.166,1373.12L935.307,1193.33L623.166,1373.12Z" style="fill:none;stroke:rgb(202,220,193);stroke-width:0.47px;"/>
                <path d="M623.12,1366.42L935.307,1186.67L623.12,1366.42Z" style="fill:none;stroke:rgb(202,220,193);stroke-width:0.47px;"/>
                <path d="M623.12,1359.76L935.307,1180L623.12,1359.76Z" style="fill:none;stroke:rgb(202,220,193);stroke-width:0.47px;"/>
                <path d="M623.166,1353.12L935.307,1173.33L623.166,1353.12Z" style="fill:none;stroke:rgb(202,220,193);stroke-width:0.47px;"/>
                <path d="M623.166,1346.45L935.307,1166.67L623.166,1346.45Z" style="fill:none;stroke:rgb(202,220,193);stroke-width:0.47px;"/>
                <path d="M623.12,1339.76L935.307,1160L623.12,1339.76Z" style="fill:none;stroke:rgb(202,220,193);stroke-width:0.47px;"/>
                <path d="M935.307,1146.67L623.12,1326.42L935.307,1146.67Z" style="fill:none;stroke:rgb(202,220,193);stroke-width:0.47px;"/>
                <path d="M935.307,1153.33L623.166,1333.55L935.307,1153.33Z" style="fill:none;stroke:rgb(202,220,193);stroke-width:0.47px;"/>
                <path d="M779.423,1050L467.654,1230L623.538,1320L935.307,1140L779.423,1050Z" style="fill:rgb(243,247,222);stroke:rgb(202,220,193);stroke-width:0.47px;"/>
                <path d="M502.295,1230L519.615,1240L577.35,1206.67L560.03,1196.67L502.295,1230Z" style="fill:rgb(8,77,6);"/>
                <g transform="matrix(1,0,0,1,103.923,60)">
                    <path d="M502.295,1230L519.615,1240L577.35,1206.67L560.03,1196.67L502.295,1230Z" style="fill:rgb(8,77,6);"/>
                </g>
                <g transform="matrix(1,0,0,1,323.316,-66.6667)">
                    <path d="M502.295,1230L519.615,1240L577.35,1206.67L560.03,1196.67L502.295,1230Z" style="fill:rgb(8,77,6);"/>
                </g>
                <g transform="matrix(1,0,0,1,219.393,-126.667)">
                    <path d="M502.295,1230L519.615,1240L577.35,1206.67L560.03,1196.67L502.295,1230Z" style="fill:rgb(8,77,6);"/>
                </g>
                <path d="M623.538,1326.42L467.654,1236.67L623.538,1326.42Z" style="fill:none;stroke:rgb(202,220,193);stroke-width:0.47px;"/>
                <path d="M623.12,1333.09L467.654,1243.33L623.12,1333.09Z" style="fill:none;stroke:rgb(202,220,193);stroke-width:0.47px;"/>
                <path d="M623.538,1340L468.289,1250.37L623.538,1340Z" style="fill:none;stroke:rgb(202,220,193);stroke-width:0.47px;"/>
                <path d="M623.12,1346.42L467.654,1256.67L623.12,1346.42Z" style="fill:none;stroke:rgb(202,220,193);stroke-width:0.47px;"/>
                <path d="M623.12,1353.58L467.654,1263.33L623.12,1353.58Z" style="fill:none;stroke:rgb(202,220,193);stroke-width:0.47px;"/>
                <path d="M623.12,1360.24L467.654,1270L623.12,1360.24Z" style="fill:none;stroke:rgb(202,220,193);stroke-width:0.47px;"/>
                <path d="M623.12,1366.91L467.654,1276.67L623.12,1366.91Z" style="fill:none;stroke:rgb(202,220,193);stroke-width:0.47px;"/>
                <path d="M467.654,1283.33L623.12,1373.09L467.654,1283.33Z" style="fill:none;stroke:rgb(202,220,193);stroke-width:0.47px;"/>
            </g>
            <g transform="matrix(1.07077,0,0,1.13732,-109.216,-177.508)">
                <ellipse cx="744.677" cy="1196.61" rx="74.951" ry="50.06" style="fill:rgb(193,201,164);stroke:rgb(202,220,193);stroke-width:0.5px;"/>
            </g>
            <path d="M831.384,1266.67L727.461,1326.67L727.461,1260L831.384,1200L831.384,1266.67Z" style="fill:rgb(255,229,178);"/>
            <path d="M935.307,1192.71L623.12,1373.09" style="fill:none;"/>
            <path d="M611.991,1133.33L560.03,1163.33L727.461,1260L831.384,1200L663.953,1103.33L611.991,1133.33Z" style="fill:rgb(255,234,193);"/>
            <path d="M560.03,1170L560.03,1176.12L565.277,1173.03L560.03,1170Z" style="fill:rgb(236,215,173);"/>
            <path d="M727.461,1326.67L721.688,1323.33L721.688,1256.67L727.461,1260L727.461,1326.67Z" style="fill:rgb(236,215,173);"/>
            <path d="M566.073,1159.84L572.265,1156.27L739.008,1253.33L733.235,1256.67L566.073,1159.84Z" style="fill:rgb(255,78,78);"/>
            <path d="M733.235,1323.33L733.235,1256.67L739.008,1253.33L739.008,1320L733.235,1323.33Z" style="fill:rgb(255,78,78);"/>
            <path d="M825.611,1270L819.837,1273.33L819.837,1206.67L825.611,1203.33L825.611,1270Z" style="fill:rgb(255,78,78);"/>
            <path d="M652.541,1109.92L658.179,1106.67L825.611,1203.33L819.837,1206.67L652.541,1109.92Z" style="fill:rgb(255,78,78);"/>
            <path d="M560.03,1170L560.03,1163.33L727.461,1260L727.461,1266.67L560.03,1170Z" style="fill:rgb(236,215,173);"/>
        </g>
    </g>
</svg>
