<?xml version="1.0" encoding="UTF-8" standalone="no"?>
<!DOCTYPE svg PUBLIC "-//W3C//DTD SVG 1.1//EN" "http://www.w3.org/Graphics/SVG/1.1/DTD/svg11.dtd">
<svg width="100%" height="100%" viewBox="0 0 2732 2048" version="1.1" xmlns="http://www.w3.org/2000/svg" xmlns:xlink="http://www.w3.org/1999/xlink" xml:space="preserve" xmlns:serif="http://www.serif.com/" style="fill-rule:evenodd;clip-rule:evenodd;stroke-linecap:round;stroke-linejoin:round;stroke-miterlimit:1.5;">
    <path d="M764.989,125L764.989,1200L2035.16,1933.33L2035.16,850L764.989,125Z" style="fill:url(#_Linear1);"/>
    <g transform="matrix(1.01922,0,0,1.01922,37.8976,26.0828)">
        <g transform="matrix(1.94247,0,0,1.94247,-499.173,-1225.56)">
            <path d="M692.82,800L1212.44,1100L1212.44,1500L692.82,1200L692.82,800Z" style="fill:rgb(246,250,252);"/>
            <path d="M692.82,833.333L1212.44,1133.33L1212.44,1100L692.82,800L692.82,833.333Z" style="fill:rgb(224,224,224);"/>
            <g transform="matrix(0.73547,0,0,0.74598,181.609,207.828)">
                <ellipse cx="710.167" cy="825.112" rx="7.023" ry="10.818" style="fill:rgb(220,41,41);"/>
            </g>
            <g transform="matrix(0.73547,0,0,0.74598,194.216,215.106)">
                <ellipse cx="710.167" cy="825.112" rx="7.023" ry="10.818" style="fill:rgb(220,148,41);"/>
            </g>
            <g transform="matrix(0.73547,0,0,0.74598,207.016,222.497)">
                <ellipse cx="710.167" cy="825.112" rx="7.023" ry="10.818" style="fill:rgb(54,179,32);"/>
            </g>
        </g>
        <g transform="matrix(1.94247,0,0,1.94247,-520.824,-1244.56)">
            <g transform="matrix(0.895836,0,0,0.900301,92.9155,123.491)">
                <path d="M1024.8,1575L1060.88,1554.17L923.76,1475L822.724,1533.33L959.845,1612.5L1024.8,1575Z" style="fill:rgb(227,227,227);"/>
            </g>
            <path d="M606.218,1250L606.218,650L1299.04,1050L1299.04,1650L606.218,1250ZM635.085,1234.23L635.085,691.667L1277.39,1056.67L1277.39,1604.17L635.085,1234.23Z" style="fill:rgb(227,227,227);"/>
            <path d="M606.218,650L627.868,637.5L1320.69,1037.5L1299.04,1050L606.218,650Z" style="fill:rgb(212,212,212);"/>
            <path d="M1121.32,936.773C1121.32,934.356 1122.4,935.678 1124.61,935.678" style="fill:none;"/>
            <path d="M1299.04,1650L1320.69,1637.5L1320.69,1037.5L1299.04,1050" style="fill:rgb(183,183,183);"/>
            <path d="M627.868,1237.5L627.868,687.5L635.085,691.667L635.085,1241.67L627.868,1237.5Z" style="fill:rgb(183,183,183);"/>
            <path d="M1277.39,1612.5L1277.39,1604.17L635.085,1233.33L627.868,1237.5L1277.39,1612.5Z" style="fill:rgb(212,212,212);"/>
            <g>
                <path d="M952.628,1450L988.712,1470.83L988.712,1529.17L952.628,1508.33L916.544,1487.5L916.544,1498.7L916.544,1429.17L952.628,1450Z" style="fill:rgb(198,198,198);"/>
                <path d="M988.712,1529.17L995.929,1525L995.929,1475L988.712,1470.83L988.712,1529.17Z" style="fill:rgb(173,173,173);"/>
            </g>
            <path d="M829.941,1504.17L829.941,1512.5L952.628,1583.33L952.779,1575.23L829.941,1504.17Z" style="fill:rgb(198,198,198);"/>
            <path d="M952.628,1583.33L1043.29,1530.99L1043.29,1522.97L952.628,1575.31L952.628,1583.33Z" style="fill:rgb(173,173,173);"/>
        </g>
        <g>
            <g transform="matrix(1,0,0,1,-1.13687e-13,-37.5)">
                <path d="M902.11,620.833L902.11,645.833L1558.85,1025L1558.85,1000L902.11,620.833Z" style="fill:rgb(228,228,228);"/>
            </g>
            <g transform="matrix(1,0,0,1,-9.59233e-14,-16.6667)">
                <path d="M902.11,504.167L902.11,579.167L1248.52,779.167L1248.52,704.167L902.11,504.167Z" style="fill:rgb(162,162,162);"/>
            </g>
            <g transform="matrix(1,0,0,1,-7.21688,-4.16667)">
                <path d="M1544.41,1375L1811.44,1529.17L1811.44,1554.17L1544.41,1400L1544.41,1375Z" style="fill:rgb(228,228,228);"/>
            </g>
            <g transform="matrix(1,0,0,1,-7.21688,-108.333)">
                <path d="M1544.41,1375L1811.44,1529.17L1811.44,1554.17L1544.41,1400L1544.41,1375Z" style="fill:rgb(228,228,228);"/>
            </g>
            <g transform="matrix(1,0,0,1,-7.21688,-208.333)">
                <path d="M1544.41,1375L1811.44,1529.17L1811.44,1554.17L1544.41,1400L1544.41,1375Z" style="fill:rgb(228,228,228);"/>
            </g>
            <g transform="matrix(1,0,0,1,-7.21688,-308.333)">
                <path d="M1544.41,1375L1811.44,1529.17L1811.44,1554.17L1544.41,1400L1544.41,1375Z" style="fill:rgb(228,228,228);"/>
            </g>
            <g transform="matrix(1.42863,0,0,1.44904,490.946,173.633)">
                <ellipse cx="710.167" cy="825.112" rx="7.023" ry="10.818"/>
            </g>
            <g transform="matrix(1.42863,0,0,1.44904,490.946,72.4854)">
                <ellipse cx="710.167" cy="825.112" rx="7.023" ry="10.818"/>
            </g>
            <g transform="matrix(1.42863,0,0,1.49257,490.946,-65.167)">
                <ellipse cx="710.167" cy="825.112" rx="7.023" ry="10.818"/>
            </g>
            <g transform="matrix(1.42863,0,0,1.49257,490.946,-167.904)">
                <ellipse cx="710.167" cy="825.112" rx="7.023" ry="10.818"/>
            </g>
            <path d="M1024.8,1150L1024.8,1033.33L988.712,1012.5L988.712,1129.17L1024.8,1150Z" style="fill:rgb(226,0,99);"/>
            <path d="M952.628,1108.33L952.628,1066.67L916.544,1045.83L916.544,1087.5L952.628,1108.33Z" style="fill:rgb(207,0,148);"/>
            <g transform="matrix(1,0,0,1,142.739,82.4105)">
                <path d="M1205.22,1254.17L1205.22,1070.83L1241.3,1091.67L1241.3,1275L1205.22,1254.17Z" style="fill:rgb(255,248,0);"/>
            </g>
            <g transform="matrix(1,0,0,1,64.9519,37.5)">
                <path d="M1212.44,1258.33L1212.44,1041.67L1248.52,1062.5L1248.52,1279.17L1212.44,1258.33Z" style="fill:rgb(255,200,0);"/>
            </g>
            <g transform="matrix(1,0,0,1,108.253,62.5)">
                <path d="M952.628,1108.33L952.628,1000L988.712,1020.83L988.712,1129.17L952.628,1108.33Z" style="fill:rgb(234,21,21);"/>
            </g>
            <g transform="matrix(1,0,0,1,93.8194,54.1667)">
                <path d="M1039.23,1158.33L1039.23,950L1075.32,970.833L1075.32,1179.17L1039.23,1158.33Z" style="fill:rgb(255,105,0);"/>
            </g>
            <g transform="matrix(1,0,0,1,79.3857,45.8333)">
                <path d="M1125.83,1208.33L1125.83,925L1161.92,945.833L1161.92,1229.17" style="fill:rgb(255,153,0);"/>
            </g>
            <path d="M902.11,1079.17L930.977,1079.17L1003.15,1087.5L1075.32,1145.83L1154.7,1100L1226.87,1083.33L1291.82,1204.17L1366,1271.99L1421.73,1295.83" style="fill:none;stroke:rgb(147,0,59);stroke-width:9.81px;"/>
            <path d="M902.11,1079.17L1421.73,1379.17L1421.73,998.104" style="fill:none;stroke:rgb(8,0,0);stroke-width:9.81px;"/>
        </g>
    </g>
    <defs>
        <linearGradient id="_Linear1" x1="0" y1="0" x2="1" y2="0" gradientUnits="userSpaceOnUse" gradientTransform="matrix(995.929,1325,-1325,995.929,829.941,329.167)"><stop offset="0" style="stop-color:rgb(56,46,141);stop-opacity:1"/><stop offset="1" style="stop-color:rgb(222,14,174);stop-opacity:1"/></linearGradient>
    </defs>
</svg>
