<?xml version="1.0" encoding="UTF-8" standalone="no"?>
<!DOCTYPE svg PUBLIC "-//W3C//DTD SVG 1.1//EN" "http://www.w3.org/Graphics/SVG/1.1/DTD/svg11.dtd">
<svg width="100%" height="100%" viewBox="0 0 2732 2048" version="1.1" xmlns="http://www.w3.org/2000/svg" xmlns:xlink="http://www.w3.org/1999/xlink" xml:space="preserve" xmlns:serif="http://www.serif.com/" style="fill-rule:evenodd;clip-rule:evenodd;stroke-linejoin:round;stroke-miterlimit:1.41421;">
    <g transform="matrix(1.0411,0,0,1.08086,-247.387,-66.3205)">
        <ellipse cx="1549.7" cy="1008.75" rx="983.578" ry="947.39" style="fill:url(#_Linear1);"/>
    </g>
    <g transform="matrix(1.21404,0,0,1.21404,-292.381,-219.178)">
        <path d="M2016,1324L716,1324L716,724L2016,724L2016,1324ZM1366,794C1492.94,794 1596,897.06 1596,1024C1596,1150.94 1492.94,1254 1366,1254C1239.06,1254 1136,1150.94 1136,1024C1136,897.06 1239.06,794 1366,794ZM1900,950C1941.39,950 1975,983.606 1975,1025C1975,1066.39 1941.39,1100 1900,1100C1858.61,1100 1825,1066.39 1825,1025C1825,983.606 1858.61,950 1900,950ZM847.602,949C888.996,949 922.602,982.606 922.602,1024C922.602,1065.39 888.996,1099 847.602,1099C806.209,1099 772.602,1065.39 772.602,1024C772.602,982.606 806.209,949 847.602,949Z" style="fill:white;"/>
        <g transform="matrix(16.5161,0,0,16.5161,-20682.8,-15753.5)">
            <text x="1328.45px" y="1023.97px" style="font-family:'ArialMT', 'Arial', sans-serif;font-size:24px;fill:white;">$</text>
        </g>
    </g>
    <defs>
        <linearGradient id="_Linear1" x1="0" y1="0" x2="1" y2="0" gradientUnits="userSpaceOnUse" gradientTransform="matrix(1.20454e-13,-1894.78,1967.16,1.16022e-13,1582.36,1956.14)"><stop offset="0" style="stop-color:rgb(255,159,17);stop-opacity:1"/><stop offset="0.53" style="stop-color:rgb(255,119,55);stop-opacity:1"/><stop offset="1" style="stop-color:rgb(255,104,70);stop-opacity:1"/></linearGradient>
    </defs>
</svg>
