<?xml version="1.0" encoding="UTF-8" standalone="no"?>
<!DOCTYPE svg PUBLIC "-//W3C//DTD SVG 1.1//EN" "http://www.w3.org/Graphics/SVG/1.1/DTD/svg11.dtd">
<svg width="100%" height="100%" viewBox="0 0 2732 2048" version="1.1" xmlns="http://www.w3.org/2000/svg" xmlns:xlink="http://www.w3.org/1999/xlink" xml:space="preserve" xmlns:serif="http://www.serif.com/" style="fill-rule:evenodd;clip-rule:evenodd;stroke-linecap:round;stroke-linejoin:round;stroke-miterlimit:1.5;">
    <g transform="matrix(2.00109,0,0,2.00109,-1664.98,-1113.66)">
        <g transform="matrix(0.489712,0,0,0.489712,729.429,686.617)">
            <g>
                <path d="M665.108,896L1551.92,384L2660.43,1024L1773.62,1536L665.108,896Z" style="fill:rgb(210,210,210);"/>
                <path d="M1773.62,1792L2660.43,1280L2660.43,1024L1773.62,1536L1773.62,1792Z" style="fill:rgb(173,173,173);"/>
                <path d="M665.108,1152L665.108,896L1773.62,1536L1773.62,1792L665.108,1152Z" style="fill:rgb(184,184,184);"/>
                <path d="M702.058,1130.67L702.058,960" style="fill:none;stroke:black;stroke-width:1.02px;"/>
                <path d="M1551.92,1450.67L1551.92,1621.33L702.058,1130.67L702.058,960L1551.92,1450.67Z" style="fill:rgb(184,184,184);stroke:rgb(99,99,99);stroke-width:14.29px;"/>
                <path d="M1588.87,1472L1588.87,1557.33L1736.67,1642.67L1736.67,1557.33L1588.87,1472Z" style="fill:rgb(18,105,0);stroke:black;stroke-width:1.02px;"/>
                <path d="M1588.87,1600L1588.87,1642.67L1625.82,1664L1625.82,1621.33L1588.87,1600Z" style="fill:rgb(29,224,54);stroke:rgb(128,128,128);stroke-width:1.02px;"/>
                <path d="M1662.77,1685.33L1662.77,1642.67L1625.82,1621.33L1625.82,1664L1662.77,1685.33Z" style="fill:rgb(243,10,10);stroke:rgb(128,128,128);stroke-width:1.02px;"/>
                <path d="M1699.72,1706.67L1699.72,1689.2L1699.72,1664L1662.77,1642.67L1662.77,1685.33L1699.72,1706.67Z" style="fill:rgb(20,0,255);stroke:rgb(128,128,128);stroke-width:1.02px;"/>
                <path d="M1736.67,1728L1736.67,1685.33L1699.72,1664L1699.72,1706.67L1736.67,1728Z" style="fill:rgb(255,247,0);stroke:rgb(111,111,111);stroke-width:1.02px;"/>
            </g>
            <g transform="matrix(1,0,0,1,18.4752,10.6667)">
                <path d="M739.008,1194.67L739.008,1237.33L665.108,1194.67L665.108,1152L739.008,1194.67Z" style="fill:rgb(32,32,32);"/>
                <path d="M775.959,1216L739.008,1237.33L739.008,1194.67L775.959,1216Z"/>
            </g>
            <g transform="matrix(1,0,0,1,979.186,565.333)">
                <path d="M739.008,1194.67L739.008,1237.33L665.108,1194.67L665.108,1152L739.008,1194.67Z" style="fill:rgb(32,32,32);"/>
                <path d="M775.959,1216L739.008,1237.33L739.008,1194.67L775.959,1216Z"/>
            </g>
        </g>
        <g transform="matrix(0.489712,0,0,0.489712,727.908,539.479)">
            <g>
                <path d="M665.108,896L1551.92,384L2660.43,1024L1773.62,1536L665.108,896Z" style="fill:rgb(210,210,210);"/>
                <path d="M1773.62,1792L2660.43,1280L2660.43,1024L1773.62,1536L1773.62,1792Z" style="fill:rgb(173,173,173);"/>
                <path d="M665.108,1152L665.108,896L1773.62,1536L1773.62,1792L665.108,1152Z" style="fill:rgb(184,184,184);"/>
                <path d="M702.058,1130.67L702.058,960" style="fill:none;stroke:black;stroke-width:1.02px;"/>
                <path d="M1551.92,1450.67L1551.92,1621.33L702.058,1130.67L702.058,960L1551.92,1450.67Z" style="fill:rgb(184,184,184);stroke:rgb(99,99,99);stroke-width:14.29px;"/>
                <path d="M1588.87,1472L1588.87,1557.33L1736.67,1642.67L1736.67,1557.33L1588.87,1472Z" style="fill:rgb(18,105,0);stroke:black;stroke-width:1.02px;"/>
                <path d="M1588.87,1600L1588.87,1642.67L1625.82,1664L1625.82,1621.33L1588.87,1600Z" style="fill:rgb(29,224,54);stroke:rgb(128,128,128);stroke-width:1.02px;"/>
                <path d="M1662.77,1685.33L1662.77,1642.67L1625.82,1621.33L1625.82,1664L1662.77,1685.33Z" style="fill:rgb(243,10,10);stroke:rgb(128,128,128);stroke-width:1.02px;"/>
                <path d="M1699.72,1706.67L1699.72,1689.2L1699.72,1664L1662.77,1642.67L1662.77,1685.33L1699.72,1706.67Z" style="fill:rgb(20,0,255);stroke:rgb(128,128,128);stroke-width:1.02px;"/>
                <path d="M1736.67,1728L1736.67,1685.33L1699.72,1664L1699.72,1706.67L1736.67,1728Z" style="fill:rgb(255,247,0);stroke:rgb(111,111,111);stroke-width:1.02px;"/>
            </g>
            <g transform="matrix(1,0,0,1,18.4752,10.6667)">
                <path d="M739.008,1194.67L739.008,1237.33L665.108,1194.67L665.108,1152L739.008,1194.67Z" style="fill:rgb(32,32,32);"/>
                <path d="M775.959,1216L739.008,1237.33L739.008,1194.67L775.959,1216Z"/>
            </g>
            <g transform="matrix(1,0,0,1,979.186,565.333)">
                <path d="M739.008,1194.67L739.008,1237.33L665.108,1194.67L665.108,1152L739.008,1194.67Z" style="fill:rgb(32,32,32);"/>
                <path d="M775.959,1216L739.008,1237.33L739.008,1194.67L775.959,1216Z"/>
            </g>
        </g>
        <g transform="matrix(0.489712,0,0,0.489712,727.908,389.794)">
            <g>
                <path d="M665.108,896L1551.92,384L2660.43,1024L1773.62,1536L665.108,896Z" style="fill:rgb(210,210,210);"/>
                <path d="M1773.62,1792L2660.43,1280L2660.43,1024L1773.62,1536L1773.62,1792Z" style="fill:rgb(173,173,173);"/>
                <path d="M665.108,1152L665.108,896L1773.62,1536L1773.62,1792L665.108,1152Z" style="fill:rgb(184,184,184);"/>
                <path d="M702.058,1130.67L702.058,960" style="fill:none;stroke:black;stroke-width:1.02px;"/>
                <path d="M1551.92,1450.67L1551.92,1621.33L702.058,1130.67L702.058,960L1551.92,1450.67Z" style="fill:rgb(184,184,184);stroke:rgb(99,99,99);stroke-width:14.29px;"/>
                <path d="M1588.87,1472L1588.87,1557.33L1736.67,1642.67L1736.67,1557.33L1588.87,1472Z" style="fill:rgb(18,105,0);stroke:black;stroke-width:1.02px;"/>
                <path d="M1588.87,1600L1588.87,1642.67L1625.82,1664L1625.82,1621.33L1588.87,1600Z" style="fill:rgb(29,224,54);stroke:rgb(128,128,128);stroke-width:1.02px;"/>
                <path d="M1662.77,1685.33L1662.77,1642.67L1625.82,1621.33L1625.82,1664L1662.77,1685.33Z" style="fill:rgb(243,10,10);stroke:rgb(128,128,128);stroke-width:1.02px;"/>
                <path d="M1699.72,1706.67L1699.72,1689.2L1699.72,1664L1662.77,1642.67L1662.77,1685.33L1699.72,1706.67Z" style="fill:rgb(20,0,255);stroke:rgb(128,128,128);stroke-width:1.02px;"/>
                <path d="M1736.67,1728L1736.67,1685.33L1699.72,1664L1699.72,1706.67L1736.67,1728Z" style="fill:rgb(255,247,0);stroke:rgb(111,111,111);stroke-width:1.02px;"/>
            </g>
            <g transform="matrix(1,0,0,1,18.4752,10.6667)">
                <path d="M739.008,1194.67L739.008,1237.33L665.108,1194.67L665.108,1152L739.008,1194.67Z" style="fill:rgb(32,32,32);"/>
                <path d="M775.959,1216L739.008,1237.33L739.008,1194.67L775.959,1216Z"/>
            </g>
            <g transform="matrix(1,0,0,1,979.186,565.333)">
                <path d="M739.008,1194.67L739.008,1237.33L665.108,1194.67L665.108,1152L739.008,1194.67Z" style="fill:rgb(32,32,32);"/>
                <path d="M775.959,1216L739.008,1237.33L739.008,1194.67L775.959,1216Z"/>
            </g>
        </g>
    </g>
</svg>
