<?xml version="1.0" encoding="UTF-8" standalone="no"?>
<!DOCTYPE svg PUBLIC "-//W3C//DTD SVG 1.1//EN" "http://www.w3.org/Graphics/SVG/1.1/DTD/svg11.dtd">
<svg width="100%" height="100%" viewBox="0 0 2732 2048" version="1.1" xmlns="http://www.w3.org/2000/svg" xmlns:xlink="http://www.w3.org/1999/xlink" xml:space="preserve" xmlns:serif="http://www.serif.com/" style="fill-rule:evenodd;clip-rule:evenodd;stroke-linejoin:round;stroke-miterlimit:1.41421;">
    <g transform="matrix(2.80473,0,0,2.56013,-1382.66,-801.189)">
        <ellipse cx="965.033" cy="712.928" rx="365.098" ry="399.98" style="fill:url(#_Linear1);"/>
    </g>
    <g>
        <g transform="matrix(1.46851,0,0,1.46851,-658.49,-400.456)">
            <g transform="matrix(1.12648,0,0,0.4,-170.755,780)">
                <path d="M1300,1300L1200,1300L1200,1400L1500,1400L1500,1300L1300,1300Z" style="fill:white;"/>
            </g>
            <rect x="1300" y="1200" width="100" height="100" style="fill:white;"/>
        </g>
        <path d="M1984.83,1361.76L663.17,1361.76L663.17,480.651L1984.83,480.651L1984.83,1361.76ZM1924.77,540.651L723.17,540.651L723.17,1301.85L1924.77,1301.85L1924.77,540.651Z" style="fill:white;"/>
    </g>
    <defs>
        <linearGradient id="_Linear1" x1="0" y1="0" x2="1" y2="0" gradientUnits="userSpaceOnUse" gradientTransform="matrix(-1.16048e-13,790.585,-721.639,-1.27136e-13,977.156,312.949)"><stop offset="0" style="stop-color:rgb(44,0,97);stop-opacity:1"/><stop offset="0.51" style="stop-color:rgb(63,13,123);stop-opacity:1"/><stop offset="1" style="stop-color:rgb(123,55,206);stop-opacity:1"/></linearGradient>
    </defs>
</svg>
